<svg width="262" height="490" viewBox="0 0 262 490" fill="none" xmlns="http://www.w3.org/2000/svg">
<path d="M121.792 5.80992C121.682 9.75636 120.586 14.4702 118.284 20.061C114.337 29.5982 113.57 40.0124 116.31 46.4802L117.845 50.0978L117.955 43.7396C117.955 39.2451 118.941 35.0794 121.024 30.1463C124.751 21.2668 125.848 10.6333 123.436 4.38481L121.792 -0.000123367V5.80992Z" fill="white"/>
<path d="M99.8668 16.6626C99.7572 21.486 98.7706 25.7613 96.4685 31.5713C92.9606 40.4508 92.1932 48.7822 94.3857 55.4693C96.4685 61.4985 97.0166 61.1697 96.6878 54.4826C96.3589 49.44 97.0166 46.4801 99.7572 39.4642C103.813 29.3789 104.471 20.0609 101.621 13.7027L99.9765 9.86591L99.8668 16.6626Z" fill="white"/>
<path d="M138.564 20.609C138.454 25.6517 137.577 29.1596 135.385 33.983C132.754 39.4642 132.206 42.0952 132.206 49.3303C132.096 55.1404 132.644 59.0868 133.741 61.06C135.275 63.9102 135.385 63.691 135.495 56.127C135.604 50.0977 136.372 46.6994 138.564 41.8759C140.099 38.4776 141.743 33.7638 142.072 31.4617C142.73 27.296 140.866 15.2374 139.441 14.3604C139.002 14.1412 138.674 16.9914 138.564 20.609Z" fill="white"/>
<path d="M62.4854 76.7364C62.4854 76.9556 65.9933 82.2175 70.159 88.3564L77.8327 99.538V110.829V122.12L71.4745 125.519C56.6753 133.302 44.6168 146.347 36.1758 163.339C30.1465 175.507 27.4059 186.908 27.4059 200.282C27.4059 215.629 29.708 225.934 36.1758 238.979C46.59 260.356 62.2661 274.716 83.8619 282.828C91.3163 285.679 91.7548 285.679 116.091 285.35L140.866 285.021L152.925 279.101C163.668 273.839 166.079 272.085 175.397 262.658C184.496 253.559 186.689 250.599 191.622 240.623C206.75 210.587 204.448 179.015 185.264 150.732C180.55 143.826 170.684 134.179 163.12 128.917C158.296 125.738 157.858 124.971 157.858 121.134V116.749H173.644H189.32L194.801 122.449C211.792 140.537 222.755 163.558 226.482 189.32C227.03 193.376 227.14 193.485 231.963 193.485C236.458 193.485 236.787 193.266 236.348 190.964C236.019 189.648 235.581 185.921 235.142 182.742C234.265 174.63 229.661 159.502 225.276 149.965C219.795 138.016 212.231 127.273 201.817 116.42L192.608 106.883H175.288H157.858V97.5648C157.858 88.7949 157.748 88.2468 155.446 87.8083C154.021 87.4795 133.96 84.9581 110.72 82.2175C87.4795 79.4769 67.1992 77.0652 65.5548 76.7364C63.8009 76.5171 62.4854 76.5171 62.4854 76.7364ZM155.775 136.262C167.724 143.936 179.673 157.967 185.373 171.122C187.895 177.151 190.306 186.579 191.183 194.253L191.951 200.063H114.447H37.0527L37.8201 193.156C40.6703 168.93 52.4 149.746 72.79 136.262L77.2845 133.302H114.118L150.842 133.192L155.775 136.262Z" fill="white"/>
<path d="M8.00263 315.167C3.50807 317.908 2.19258 320.429 2.19258 326.459C2.19258 330.624 2.7407 331.83 5.59091 334.242C7.45451 335.777 12.2779 338.079 16.4436 339.394C25.8712 342.244 29.5984 344.985 29.5984 349.041C29.5984 354.084 27.2963 356.057 20.7189 356.605C15.3474 357.044 14.2512 356.715 11.1817 354.084C9.20848 352.439 7.67376 350.466 7.67376 349.589C7.67376 348.493 6.79677 348.274 4.16581 348.822C-0.548001 349.699 -0.438378 349.48 1.53484 353.316C4.38505 358.907 9.42773 361.648 17.5399 362.086C30.1466 362.854 36.724 358.03 36.724 348.274C36.724 344.218 36.1758 343.012 33.216 340.381C31.2428 338.627 26.7482 336.325 23.3499 335.338C19.842 334.351 15.1281 332.598 12.9357 331.501C9.31811 329.638 8.76999 328.87 8.76999 325.691C8.76999 321.197 10.6336 319.552 16.5533 318.785C21.8152 318.018 27.9541 320.649 28.8311 324.156C29.2696 325.801 30.0369 326.02 32.5583 325.472C34.2026 325.033 35.847 324.595 36.0662 324.376C37.1625 323.389 31.7909 316.592 28.5022 314.948C23.1307 312.208 12.6068 312.317 8.00263 315.167Z" fill="white"/>
<path d="M59.1964 331.282C59.1964 352.11 60.0734 355.289 66.8701 359.894C70.1588 362.086 71.8031 362.415 78.0516 362.086C86.4926 361.648 90.4391 359.455 93.3989 353.426C95.0433 350.356 95.3721 346.629 95.3721 331.282V312.975H92.0834H88.7947V329.966C88.7947 350.247 87.8081 353.645 81.6692 355.728C78.4901 356.824 76.6265 356.824 73.3378 355.838C66.5412 353.755 65.7738 351.124 65.7738 330.515V312.975H62.4851H59.1964V331.282Z" fill="white"/>
<path d="M120.586 337.64V362.306H124.422H128.259V351.343V340.381H136.481C144.484 340.381 144.703 340.271 144.703 337.64C144.703 335.009 144.484 334.9 136.481 334.9H128.259V327.226V319.552H138.125H147.991V316.264V312.975H134.289H120.586V337.64Z" fill="white"/>
<path d="M173.753 336.215C169.039 349.041 164.983 360.223 164.654 360.99C164.326 362.086 165.093 362.415 167.724 362.086C171.013 361.757 171.561 361.209 173.534 355.947L175.726 350.137L186.689 350.466L197.542 350.795L199.734 356.496C201.598 361.648 202.255 362.306 205.106 362.306C206.859 362.306 208.285 361.977 208.285 361.648C208.285 361.209 194.472 323.17 191.293 314.839C190.745 313.523 189.32 312.975 186.36 312.975H182.304L173.753 336.215ZM190.635 331.392C192.718 337.202 194.582 342.683 194.911 343.341C195.239 344.437 193.047 344.766 186.36 344.766C179.673 344.766 177.59 344.437 177.919 343.341C178.248 342.683 180.111 337.202 182.085 331.282C184.058 325.472 186.031 320.649 186.36 320.649C186.689 320.649 188.552 325.472 190.635 331.392Z" fill="white"/>
<path d="M225.824 316.264V319.552H238.979C246.214 319.552 252.134 319.772 252.134 320.101C252.134 320.429 246.214 328.651 238.979 338.517C229.771 351.014 225.824 357.153 225.824 359.236V362.306H243.912H262V359.017V355.838L248.297 355.509L234.484 355.18L247.749 337.092C256.848 324.485 260.904 318.127 260.904 315.935V312.975H243.364H225.824V316.264Z" fill="white"/>
<path d="M25.1036 377.653C6.79648 380.832 -4.05624 400.235 1.53456 419.529C4.27514 428.518 8.55045 433.78 16.553 437.836C25.5421 442.331 36.9429 442.66 45.4935 438.603C50.6458 436.301 59.1965 428.299 59.1965 425.887C59.1965 425.339 57.6617 424.024 55.9078 423.147C52.5094 421.393 52.5094 421.393 47.7956 426.326C38.4776 435.863 25.7613 436.192 16.3337 427.093C8.11196 419.091 6.46761 406.593 12.2776 395.96C19.2935 383.244 39.9027 381.709 48.6726 393.329C51.5228 397.056 51.7421 397.166 55.1404 395.741C57.004 394.973 58.758 393.768 58.9772 393.11C59.1965 392.562 57.3329 389.821 54.8115 387.19C47.5764 379.297 36.2852 375.68 25.1036 377.653Z" fill="white"/>
<path d="M103.594 379.516C101.73 384.34 81.1211 440.357 81.1211 440.906C81.1211 441.125 83.2039 441.234 85.7253 441.015L90.2198 440.686L92.6316 433.561L95.0433 426.435L109.404 426.106L123.765 425.777L126.176 433.561L128.698 441.234H133.411H138.016L134.946 432.684C133.192 428.08 127.93 413.719 123.326 400.893L114.775 377.653H109.623C105.677 377.653 104.142 378.091 103.594 379.516ZM115.543 403.195C118.283 410.978 120.586 417.556 120.586 417.775C120.586 417.994 115.652 418.213 109.623 418.213C103.594 418.213 98.6608 417.885 98.6608 417.446C98.6608 415.144 109.075 387.629 109.733 388.286C110.062 388.834 112.693 395.521 115.543 403.195Z" fill="white"/>
<path d="M165.531 409.444V441.234H169.916H174.301V426.983V412.732H185.264H196.226V408.895V405.059H185.264H174.301V395.193V385.326H186.908H199.515V381.49V377.653H182.523H165.531V409.444Z" fill="white"/>
<path d="M228.017 409.444V441.234H245.009H262V437.398V433.561H249.394H236.787V423.147V412.732H247.749H258.712V408.895V405.059H247.749H236.787V395.193V385.326H249.394H262V381.49V377.653H245.009H228.017V409.444Z" fill="white"/>
<path d="M0 486.18V489.469H131H262V486.18V482.891H131H0V486.18Z" fill="white"/>
</svg>
